<?xml version="1.0" standalone="no"?><!DOCTYPE svg PUBLIC "-//W3C//DTD SVG 1.1//EN" "http://www.w3.org/Graphics/SVG/1.1/DTD/svg11.dtd"><svg t="1615878635027" class="icon" viewBox="0 0 1389 1024" version="1.1" xmlns="http://www.w3.org/2000/svg" p-id="2066" xmlns:xlink="http://www.w3.org/1999/xlink" width="271.2890625" height="200"><defs><style type="text/css"></style></defs><path d="M1068.0307 892.50165a42.973317 42.973317 0 0 1-42.973317-42.973317 42.973317 42.973317 0 0 1 42.973317-42.973318 211.42872 211.42872 0 0 0 183.066331-109.152225 266.434566 266.434566 0 0 0-214.00712-424.576373 50.708514 50.708514 0 0 1-41.254384-19.767726 343.786537 343.786537 0 0 0-617.9563 66.178909 41.254384 41.254384 0 0 1-42.973317 29.221855h-9.45413a229.477513 229.477513 0 0 0 0 458.955027h38.675986a42.973317 42.973317 0 0 1 42.973317 42.973317 42.973317 42.973317 0 0 1-42.973317 42.973317h-37.816519A315.424147 315.424147 0 0 1 308.262453 259.074956a429.733171 429.733171 0 0 1 747.735718-73.914106A353.240667 353.240667 0 0 1 1386.033246 539.260983a343.786537 343.786537 0 0 1-66.178908 204.55299 293.078023 293.078023 0 0 1-251.823638 148.687677z" fill="#595BB3" p-id="2067"></path><path d="M698.460173 1024a42.973317 42.973317 0 0 1-42.973317-42.973317V407.762633a43.832783 43.832783 0 0 1 42.973317-42.973317 42.973317 42.973317 0 0 1 42.973317 42.973317v573.26405a42.973317 42.973317 0 0 1-42.973317 42.973317z" fill="#595BB3" p-id="2068"></path><path d="M939.970215 670.759333a46.411182 46.411182 0 0 1-30.081322-12.032528L670.097783 424.092493a43.832783 43.832783 0 0 1 0-61.02211 42.973317 42.973317 0 0 1 61.022111 0l239.791109 234.634311a42.973317 42.973317 0 0 1-30.081322 73.914106z" fill="#595BB3" p-id="2069"></path><path d="M460.387996 670.759333a43.832783 43.832783 0 0 1-30.940788-12.891995 43.832783 43.832783 0 0 1 0-61.02211l240.650575-234.634311a42.973317 42.973317 0 1 1 60.162644 61.881576L490.469318 658.726805a44.69225 44.69225 0 0 1-30.081322 12.032528z" fill="#595BB3" p-id="2070"></path></svg>